<?xml version="1.0" encoding="utf-8"?>
<!DOCTYPE svg PUBLIC "-//W3C//DTD SVG 1.1//EN" "http://www.w3.org/Graphics/SVG/1.1/DTD/svg11.dtd">
<svg version="1.1" id="icon-large-bar-chart" xmlns="http://www.w3.org/2000/svg" xmlns:xlink="http://www.w3.org/1999/xlink"
	 x="0px" y="0px" width="25px" height="25px" viewBox="0 0 25 25" enable-background="new 0 0 25 25" xml:space="preserve">
<g>
	<path fill="#666666" d="M19.5,20.5c0-3.8,0-11.2,0-15C19.5,5.2,19.3,5,19,5c-0.3,0-0.5,0.2-0.5,0.5c0,3.8,0,11.2,0,15
		c0,0.3,0.2,0.5,0.5,0.5C19.3,21,19.5,20.9,19.5,20.5z"/>
	<path fill="#666666" d="M3,23c4.7,0,14.2,0,19,0c0.3,0,0.5-0.2,0.5-0.5S22.3,22,22,22c-4.8,0-14.3,0-19,0c-0.3,0-0.5,0.2-0.5,0.5
		C2.5,22.8,2.7,23,3,23z M3.5,22.5c0-4.7,0-14.2,0-19C3.5,3.2,3.3,3,3,3S2.5,3.2,2.5,3.5c0,4.8,0,14.3,0,19C2.5,22.8,2.7,23,3,23
		C3.3,23,3.5,22.8,3.5,22.5z"/>
	<path fill="#666666" d="M0,5.5"/>
</g>
<path fill="#666666" d="M7.5,20.5v-6C7.5,14.2,7.3,14,7,14c-0.3,0-0.5,0.2-0.5,0.5v6C6.5,20.8,6.7,21,7,21S7.5,20.8,7.5,20.5z"/>
<path fill="#666666" d="M11.5,20.5v-12C11.5,8.2,11.3,8,11,8s-0.5,0.2-0.5,0.5v12c0,0.3,0.2,0.5,0.5,0.5S11.5,20.8,11.5,20.5z"/>
<path fill="#666666" d="M15.5,20.5v-9c0-0.4-0.2-0.5-0.5-0.5s-0.5,0.1-0.5,0.5v9c0,0.4,0.2,0.5,0.5,0.5S15.5,20.8,15.5,20.5z"/>
</svg>
