<?xml version="1.0" encoding="utf-8"?>
<!-- Generator: Adobe Illustrator 18.1.1, SVG Export Plug-In . SVG Version: 6.00 Build 0)  -->
<svg version="1.1" id="Слой_1" xmlns="http://www.w3.org/2000/svg" xmlns:xlink="http://www.w3.org/1999/xlink" x="0px" y="0px"
	 viewBox="0 0 50 50" enable-background="new 0 0 50 50" xml:space="preserve">
<path id="magnifier-2-icon" fill="#FF6843" d="M45.4,41.6L34.8,30.9c2-2.8,3.2-6.1,3.2-9.8c0-9.2-7.5-16.7-16.7-16.7
	c-9.2,0-16.7,7.5-16.7,16.7c0,9.2,7.5,16.7,16.7,16.7c3.5,0,6.7-1.1,9.4-2.9l10.7,10.7L45.4,41.6z M9.5,21.1
	c0-6.5,5.3-11.8,11.8-11.8c6.5,0,11.8,5.3,11.8,11.8c0,6.5-5.3,11.8-11.8,11.8C14.8,32.9,9.5,27.6,9.5,21.1z"/>
</svg>
