<?xml version="1.0" encoding="utf-8"?>
<!-- Generator: Adobe Illustrator 18.1.1, SVG Export Plug-In . SVG Version: 6.00 Build 0)  -->
<svg version="1.1" id="Слой_1" xmlns="http://www.w3.org/2000/svg" xmlns:xlink="http://www.w3.org/1999/xlink" x="0px" y="0px"
	 viewBox="0 0 50 50" enable-background="new 0 0 50 50" xml:space="preserve">
<path id="magnifier-4-icon" d="M43.2,37.8l-8.5-8.5c1.7-2.6,2.6-5.7,2.6-9c0-9.3-7.6-16.9-16.9-16.9C11.1,3.4,3.6,11,3.6,20.3
	s7.6,16.9,16.9,16.9c3.1,0,6.1-0.9,8.6-2.4l8.6,8.6C41.3,47.1,46.9,41.5,43.2,37.8z M8.8,20.3c0-6.4,5.2-11.6,11.6-11.6
	s11.6,5.2,11.6,11.6s-5.2,11.6-11.6,11.6S8.8,26.7,8.8,20.3z M12.2,17.3c3.4-7.9,14.9-7,17,1.3C24.9,13.4,17.3,12.9,12.2,17.3z"/>
</svg>
